<?xml version="1.0" ?><!DOCTYPE svg  PUBLIC '-//W3C//DTD SVG 1.1//EN'  'http://www.w3.org/Graphics/SVG/1.1/DTD/svg11.dtd'><svg version="1.1" id="Layer_1" xmlns="http://www.w3.org/2000/svg" xmlns:xlink="http://www.w3.org/1999/xlink" viewBox="0 0 512 512" xml:space="preserve" fill="#000000"><g id="SVGRepo_bgCarrier" stroke-width="0"></g><g id="SVGRepo_tracerCarrier" stroke-linecap="round" stroke-linejoin="round"></g><g id="SVGRepo_iconCarrier"> <path style="fill:#E0DCCD;" d="M408.006,296.85h-47.968l0,0c0,17.662,14.317,31.979,31.979,31.979h15.989V296.85z"></path> <rect x="336.052" y="216.187" style="fill:#75C0C7;" width="79.947" height="79.947"></rect> <rect x="336.052" y="216.187" style="fill:#589095;" width="31.979" height="79.947"></rect> <rect x="447.979" y="416.06" style="fill:#75C0C7;" width="63.954" height="95.936"></rect> <rect x="487.952" y="416.06" style="fill:#589095;" width="23.981" height="95.936"></rect> <path style="fill:#FCBB3B;" d="M447.979,72.285L447.979,72.285c0-13.246,10.738-23.985,23.985-23.985h7.995 c13.246,0,23.985,10.738,23.985,23.985v15.99h-55.964V72.285z"></path> <path style="fill:#BD8C2C;" d="M479.958,48.899h-7.995c-2.818,0-5.618,0.277-8.13,1.169c9.294,3.304,15.855,11.789,15.855,22.216 v15.11h24.97v-15.11C504.658,59.038,493.204,48.899,479.958,48.899z"></path> <path style="fill:#E0DCCD;" d="M503.942,88.275v51.966c0,15.454-12.528,27.982-27.982,27.982l0,0 c-15.454,0-27.982-12.528-27.982-27.982V88.275"></path> <path style="fill:#A8A59A;" d="M486.971,87.394v52.846c0,12.656-7.965,23.225-19.496,26.682c2.549,0.764,5.8,1.299,8.598,1.299 c15.454,0,28.585-12.528,28.585-27.982V87.394H486.971z"></path> <path style="fill:#FCBB3B;" d="M440.152,256.164v31.979V303.8h-24.97v32.253h24.97v16.049v40.133h64.505v-56.123v-31.979V192.206 C468.243,192.206,440.152,220.841,440.152,256.164z"></path> <g> <rect x="439.989" y="336.115" style="fill:#BD8C2C;" width="63.954" height="15.989"></rect> <rect x="487.952" y="200.206" style="fill:#BD8C2C;" width="15.989" height="191.872"></rect> </g> <rect x="24.257" y="456.032" style="fill:#4BAF78;" width="295.809" height="23.981"></rect> <rect x="24.257" y="456.032" style="fill:#1E834E;" width="95.936" height="23.981"></rect> <polyline style="fill:#75C0C7;" points="335.071,511.881 335.071,480.669 8.383,480.669 8.383,511.881 "></polyline> <polyline style="fill:#589095;" points="128.03,511.881 128.03,480.669 8.383,480.669 8.383,511.881 "></polyline> <polyline style="fill:#E0DCCD;" points="39.595,456.74 39.595,8.323 303.859,8.323 303.859,456.74 "></polyline> <polyline style="fill:#A8A59A;" points="39.595,456.74 39.595,8.323 112.424,8.323 112.424,456.74 "></polyline> <g> <polyline style="fill:#4BAF78;" points="80.171,239.294 63.524,239.294 63.524,431.77 280.97,431.77 280.97,239.294 144.676,239.294 "></polyline> <rect x="63.527" y="33.293" style="fill:#4BAF78;" width="217.446" height="166.465"></rect> </g> <g> <polyline style="fill:#1E834E;" points="63.524,240.174 63.524,240.174 63.524,431.77 112.424,431.77 112.424,239.294 80.171,239.294 "></polyline> <rect x="63.527" y="33.293" style="fill:#1E834E;" width="48.899" height="166.465"></rect> </g> <polygon points="343.394,511.881 327.788,511.881 327.788,487.952 15.665,487.952 15.665,511.881 0.059,511.881 0.059,472.346 343.394,472.346 "></polygon> <path d="M311.142,448.416V0H32.312v448.416h-8.323v15.606h296.517v-15.606H311.142z M47.918,15.606h247.617v432.81H47.918 C47.918,448.416,47.918,15.606,47.918,15.606z"></path> <circle style="fill:#FCBB3B;" cx="112.198" cy="240.178" r="15.989"></circle> <path d="M112.199,263.967c-13.119,0-23.792-10.674-23.792-23.793c0-13.119,10.674-23.792,23.792-23.792 c13.12,0,23.793,10.674,23.793,23.792C135.992,253.294,125.318,263.967,112.199,263.967z M112.199,231.988 c-4.514,0-8.186,3.673-8.186,8.186c0,4.514,3.672,8.187,8.186,8.187c4.514,0,8.187-3.673,8.187-8.187 C120.386,235.661,116.713,231.988,112.199,231.988z"></path> <rect x="104.103" y="271.547" width="15.606" height="24.97"></rect> <rect x="160.285" y="120.687" style="fill:#FFFFFF;" width="23.929" height="15.606"></rect> <path d="M475.961,176.025c-19.732,0-35.786-16.052-35.786-35.785v-35.976h15.606v35.976c0,11.126,9.053,20.179,20.18,20.179 c11.127,0,20.179-9.052,20.179-20.179v-35.976h15.606v35.976C511.745,159.972,495.693,176.025,475.961,176.025z"></path> <path d="M511.745,96.078H400.01V80.472h96.13v-8.187c0-8.923-7.259-16.181-16.181-16.181h-7.996 c-8.923,0-16.181,7.259-16.181,16.181h-15.606c0-17.528,14.26-31.788,31.788-31.788h7.996c17.528,0,31.788,14.26,31.788,31.788 v23.793H511.745z"></path> <path d="M503.942,463.836c-17.528,0-31.788-14.26-31.788-31.788h15.606c0,8.923,7.259,16.181,16.181,16.181V463.836z"></path> <path d="M432.182,352.102v47.777h79.564V184.403h-7.803c-39.569,0-71.761,32.192-71.761,71.761v31.979h15.606v-31.979 c0-28.316,21.068-51.805,48.352-55.615v128.22h-80.957v-17.687h64.505v-71.788h-15.606v56.182h-40.278v-87.09h-95.554v95.554h24.63 c3.355,18.563,19.622,32.691,39.137,32.691v-15.606c-10.602,0-19.631-6.859-22.884-16.373h30.444v39.723h96.563v39.897h-48.352 v-32.17H432.182z M343.855,279.87h16.186v-15.606h-16.186v-8.323h24.509v-15.606h-24.509v-16.342h24.509v8.018h15.606v-8.018h24.227 v64.342h-64.342V279.87z"></path> <polygon points="511.941,407.84 432.87,407.84 432.87,423.447 440.18,423.447 440.22,512 455.826,511.993 455.786,423.447 511.941,423.447 "></polygon> <polygon points="288.253,440.093 56.241,440.093 56.241,232.011 80.171,232.011 80.171,247.617 71.848,247.617 71.848,424.487 272.647,424.487 272.647,247.617 144.676,247.617 144.676,232.011 288.253,232.011 "></polygon> <path d="M288.253,208.082H56.241V24.97h232.011V208.082z M71.848,192.476h200.799v-151.9H71.848 C71.848,40.576,71.848,192.476,71.848,192.476z"></path> </g></svg>