<?xml version="1.0" ?><!DOCTYPE svg  PUBLIC '-//W3C//DTD SVG 1.1//EN'  'http://www.w3.org/Graphics/SVG/1.1/DTD/svg11.dtd'><svg height="200px" width="200px" version="1.1" id="Layer_1" xmlns="http://www.w3.org/2000/svg" xmlns:xlink="http://www.w3.org/1999/xlink" viewBox="0 0 512 512" xml:space="preserve" fill="#000000"><g id="SVGRepo_bgCarrier" stroke-width="0"></g><g id="SVGRepo_tracerCarrier" stroke-linecap="round" stroke-linejoin="round"></g><g id="SVGRepo_iconCarrier"> <circle style="fill:#CA463D;" cx="256" cy="256" r="243.81"></circle> <g> <path style="fill:#EFEFEF;" d="M375.536,101.984C342.495,76.282,301.006,60.952,256,60.952 C148.451,60.952,60.952,148.451,60.952,256c0,45.006,15.33,86.495,41.032,119.536L375.536,101.984z"></path> <path style="fill:#EFEFEF;" d="M136.464,410.016c33.041,25.702,74.53,41.032,119.536,41.032 c107.549,0,195.048-87.498,195.048-195.048c0-45.006-15.33-86.495-41.032-119.536L136.464,410.016z"></path> </g> <path d="M256,0C114.842,0,0,114.842,0,256s114.842,256,256,256s256-114.842,256-256S397.158,0,256,0z M256,487.619 C128.284,487.619,24.381,383.716,24.381,256S128.284,24.381,256,24.381S487.619,128.284,487.619,256S383.716,487.619,256,487.619z"></path> <path d="M387.702,101.227c-0.217-3.49-1.921-6.718-4.682-8.865c-36.668-28.523-80.59-43.6-127.02-43.6 C141.729,48.762,48.762,141.729,48.762,256c0,46.429,15.076,90.352,43.599,127.02c2.148,2.76,5.376,4.465,8.865,4.682 c0.254,0.016,0.506,0.024,0.758,0.024c3.222,0,6.326-1.278,8.619-3.571l273.553-273.552 C386.628,108.132,387.92,104.716,387.702,101.227z M103.492,356.786C83.593,326.872,73.143,292.303,73.143,256 c0-100.827,82.03-182.857,182.857-182.857c36.304,0,70.873,10.451,100.787,30.349L103.492,356.786z"></path> <path d="M419.639,128.98c-2.148-2.76-5.376-4.465-8.865-4.682c-3.489-0.223-6.905,1.074-9.377,3.546L127.844,401.396 c-2.472,2.472-3.764,5.888-3.546,9.377c0.217,3.49,1.921,6.718,4.682,8.865c36.668,28.523,80.59,43.6,127.02,43.6 c114.271,0,207.238-92.967,207.238-207.238C463.238,209.571,448.162,165.648,419.639,128.98z M256,438.857 c-36.304,0-70.873-10.451-100.787-30.349l253.294-253.294c19.901,29.914,30.351,64.483,30.351,100.786 C438.857,356.827,356.827,438.857,256,438.857z"></path> </g></svg>