<?xml version="1.0" ?><!DOCTYPE svg  PUBLIC '-//W3C//DTD SVG 1.1//EN'  'http://www.w3.org/Graphics/SVG/1.1/DTD/svg11.dtd'><svg version="1.1" id="Layer_1" xmlns="http://www.w3.org/2000/svg" xmlns:xlink="http://www.w3.org/1999/xlink" viewBox="0 0 512 512" xml:space="preserve" fill="#000000"><g id="SVGRepo_bgCarrier" stroke-width="0"></g><g id="SVGRepo_tracerCarrier" stroke-linecap="round" stroke-linejoin="round"></g><g id="SVGRepo_iconCarrier"> <path style="fill:#FCBB3B;" d="M7.84,348.722V452.21h495.486V348.722H7.84z M223.178,428.167H72.65v-55.402h150.527V428.167z M440.606,428.167H287.988v-55.402h152.618V428.167z"></path> <g> <rect x="7.84" y="428.293" style="fill:#BD8C2C;" width="152.095" height="24.015"></rect> <rect x="7.84" y="348.241" style="fill:#BD8C2C;" width="152.095" height="24.015"></rect> </g> <rect x="7.84" y="372.263" style="fill:#E0DCCD;" width="64.037" height="56.036"></rect> <rect x="7.84" y="372.263" style="fill:#A8A59A;" width="32.021" height="56.036"></rect> <rect x="223.983" y="372.263" style="fill:#E0DCCD;" width="64.037" height="56.036"></rect> <rect x="223.983" y="372.263" style="fill:#A8A59A;" width="32.021" height="56.036"></rect> <rect x="440.115" y="372.263" style="fill:#E0DCCD;" width="64.037" height="56.036"></rect> <rect x="440.115" y="372.263" style="fill:#A8A59A;" width="32.021" height="56.036"></rect> <polyline style="fill:#4BAF78;" points="31.883,348.722 31.883,204.467 208.543,204.467 208.543,348.722 "></polyline> <polyline style="fill:#1E834E;" points="31.883,348.722 31.883,204.467 78.922,204.467 78.922,348.722 "></polyline> <rect x="31.855" y="236.172" style="fill:#E0DCCD;" width="80.051" height="32.021"></rect> <polygon style="fill:#75C0C7;" points="480.329,348.722 480.329,60.211 167.775,60.211 167.775,204.467 208.543,204.467 208.543,348.722 "></polygon> <polygon style="fill:#589095;" points="239.99,348.245 207.969,348.245 207.969,204.152 167.944,204.152 167.944,60.059 239.99,60.059 "></polygon> <g> <polyline style="fill:#E0DCCD;" points="360.067,60.059 360.067,116.095 296.026,116.095 296.026,60.059 "></polyline> <polyline style="fill:#E0DCCD;" points="279.625,348.722 279.625,260.915 423.881,260.915 423.881,348.722 "></polyline> </g> <polyline style="fill:#A8A59A;" points="279.625,348.722 279.625,260.915 360.116,260.915 360.116,348.722 "></polyline> <rect x="320.038" y="260.193" style="fill:#4BAF78;" width="64.037" height="32.021"></rect> <g> <polygon style="fill:#FFFFFF;" points="130.379,329.774 119.912,319.307 109.446,329.774 98.358,318.686 119.912,297.131 141.466,318.686 "></polygon> <polygon style="fill:#FFFFFF;" points="178.409,329.774 167.944,319.307 157.477,329.774 146.39,318.686 167.944,297.131 189.497,318.686 "></polygon> <polygon style="fill:#FFFFFF;" points="373.616,225.706 362.529,214.619 384.083,193.064 405.637,214.619 394.548,225.706 384.083,215.239 "></polygon> <polygon style="fill:#FFFFFF;" points="421.647,225.706 410.56,214.619 432.114,193.064 453.667,214.619 442.58,225.706 432.114,215.239 "></polygon> </g> <rect x="312.031" y="316.317" width="24.043" height="15.68"></rect> <path d="M488.691,340.406V51.849H160.458v135.893h15.68V67.529h112.048v56.406h32.208v15.722h15.68v-15.722h31.833V67.529h105.105 v272.876h-40.768v-87.853H272.308v87.853H215.86v-144.3H24.565v144.3H0v119.747h512V340.406H488.691z M352.227,108.256h-48.361 V67.529h48.361V108.256z M327.711,268.232h48.085v15.68h-48.085V268.232z M287.988,331.997h16.725v-15.68h-16.725v-48.085h24.043 v31.36h79.445v-31.36h25.088v72.173H287.988V331.997z M40.245,244.189h63.765v15.68H40.245V244.189z M40.245,275.549h79.445v-47.04 H40.245v-16.725H200.18v25.088h-72.128v15.68h72.128v87.853H40.245V275.549z M496.32,356.086v8.318H15.68v-8.318H496.32z M496.32,404.125v15.68h-15.991v-8.363h-15.68v8.363h-16.725v-8.363h8.363v-15.68h-8.363v-15.68h8.363v8.363h15.68v-8.363h24.354 v8.363h-8.674v15.68H496.32z M239.903,411.442v8.363h-8.363v-15.68h8.363v-15.68h-8.363v-8.363h49.13v15.68h-8.363v15.68h8.363 v8.363h-25.088v-8.363H239.903z M40.245,411.442v-15.68H23.52v-7.317h-7.84v-8.363h48.608v8.363h-8.363v15.68h8.363v15.68H15.68 v-15.68h7.84v7.317H40.245z M79.968,380.082H215.86v39.723H79.968V380.082z M296.351,380.082h135.893v39.723H296.351V380.082z M15.68,444.472v-8.988h480.64v8.988H15.68z"></path> <rect x="215.86" y="163.699" style="fill:#FFFFFF;" width="104.533" height="15.68"></rect> <rect x="248.266" y="188.787" width="72.128" height="15.68"></rect> <rect x="263.946" y="212.829" width="56.448" height="15.68"></rect> </g></svg>