<?xml version="1.0" ?><!DOCTYPE svg  PUBLIC '-//W3C//DTD SVG 1.1//EN'  'http://www.w3.org/Graphics/SVG/1.1/DTD/svg11.dtd'><svg version="1.1" id="Layer_1" xmlns="http://www.w3.org/2000/svg" xmlns:xlink="http://www.w3.org/1999/xlink" viewBox="0 0 512.001 512.001" xml:space="preserve" fill="#000000"><g id="SVGRepo_bgCarrier" stroke-width="0"></g><g id="SVGRepo_tracerCarrier" stroke-linecap="round" stroke-linejoin="round"></g><g id="SVGRepo_iconCarrier"> <g> <rect x="367.885" y="152.467" style="fill:#75C0C7;" width="24.007" height="79.442"></rect> <rect x="119.807" y="152.467" style="fill:#75C0C7;" width="24.007" height="79.432"></rect> </g> <path style="fill:#4BAF78;" d="M119.805,511.997v-55.094c0-18.189,14.745-32.933,32.934-32.933h63.097v16.006 c0,22.099,17.914,40.013,40.013,40.013s40.013-17.914,40.013-40.013V423.97h63.097c18.189,0,32.933,14.745,32.933,32.933v55.094"></path> <g> <rect x="167.822" y="487.983" style="fill:#1E834E;" width="17.267" height="24.007"></rect> <rect x="345.634" y="487.983" style="fill:#1E834E;" width="17.267" height="24.007"></rect> <path style="fill:#1E834E;" d="M303.702,479.987c22.098,0,40.614-17.914,40.614-40.013v-16.812h-49.122v16.812 c0,13.225-5.862,24.858-15.753,32.143C286.077,477.004,294.83,479.987,303.702,479.987z"></path> <path style="fill:#1E834E;" d="M199.992,423.162h-47.254c-18.188,0-33.129,15.552-33.129,33.741V512h48.077v-55.098 C167.685,438.714,181.804,423.162,199.992,423.162z"></path> </g> <polyline style="fill:#BD8C2C;" points="175.822,143.881 143.812,143.881 143.812,239.911 175.822,239.911 "></polyline> <path style="fill:#E0DCCD;" d="M215.762,439.974c0,22.099,17.617,40.013,39.716,40.013s39.716-17.914,39.716-40.013v-47.122h-79.432 V439.974z"></path> <polyline style="fill:#FCBB3B;" points="335.872,143.881 367.882,143.881 367.882,239.911 335.872,239.911 "></polyline> <path style="fill:#A8A59A;" d="M238.755,439.974v-47.122h-22.993v47.122c0,22.098,17.951,40.013,40.048,40.013 c4.211,0,7.666-0.83,11.479-2.036C251.098,472.828,238.755,457.861,238.755,439.974z"></path> <path style="fill:#E0DCCD;" d="M335.872,319.936c0,44.197-35.828,80.024-80.024,80.024l0,0c-44.197,0-80.024-35.828-80.024-80.024 v-192.06c0-44.197,35.828-80.024,80.024-80.024l0,0c44.197,0,80.024,35.828,80.024,80.024V319.936z"></path> <path style="fill:#A8A59A;" d="M231.439,319.936v-192.06c0-34.327,21.855-63.521,52.216-74.885 c-8.729-3.267-17.928-5.139-27.797-5.139c-44.197,0-79.813,35.828-79.813,80.026v192.06c0,44.197,35.716,80.026,79.913,80.026 c9.869,0,19.024-1.872,27.753-5.139C253.351,383.457,231.439,354.263,231.439,319.936z"></path> <circle style="fill:#FCBB3B;" cx="239.843" cy="343.94" r="16.006"></circle> <g> <path style="fill:#FFFFFF;" d="M227.839,335.941c-11.049,0-20.006-8.957-20.006-20.006l0,0c0-11.049,8.957-20.006,20.006-20.006 h56.017c11.049,0,20.006,8.957,20.006,20.006l0,0c0,11.049-8.957,20.006-20.006,20.006h-28.009"></path> <circle style="fill:#FFFFFF;" cx="215.836" cy="191.891" r="32.01"></circle> <circle style="fill:#FFFFFF;" cx="295.864" cy="191.891" r="32.01"></circle> </g> <polygon points="416.432,183.821 399.709,183.821 399.709,152.466 384.032,152.466 384.032,231.898 399.709,231.898 399.709,199.498 416.432,199.498 "></polygon> <polygon points="111.246,152.466 111.246,183.821 95.569,183.821 95.569,199.498 111.246,199.498 111.246,231.898 126.924,231.898 126.924,152.466 "></polygon> <path d="M111.965,143.881C111.965,64.545,176.511,0,255.847,0s143.881,64.545,143.881,143.881h-15.677 c0-70.692-57.512-128.204-128.204-128.204S127.643,73.189,127.643,143.881H111.965z"></path> <rect x="135.286" y="255.938" style="fill:#75C0C7;" width="15.677" height="24.039"></rect> <path d="M255.847,271.419c-13.148,0-23.843-10.256-23.843-23.843h15.677c0,5.226,3.663,8.166,8.166,8.166 c4.503,0,8.166-2.94,8.166-8.166h15.677C279.691,261.163,268.995,271.419,255.847,271.419z"></path> <g> <rect x="192.77" y="128.429" style="fill:#75C0C7;" width="45.987" height="15.677"></rect> <rect x="273.247" y="96.029" style="fill:#75C0C7;" width="38.671" height="15.677"></rect> </g> <rect x="208.447" y="183.822" width="14.632" height="15.677"></rect> <rect x="287.879" y="183.822" width="15.677" height="15.677"></rect> <path d="M358.957,416.13h-55.401v-22.469c24.142-15.676,40.155-42.858,40.155-73.725V247.75h32.01V136.043h-32.01v-8.167 c0-48.448-39.415-87.863-87.863-87.863s-87.864,39.415-87.864,87.863v8.167h-32.01V247.75h32.01v72.186 c0,1.406,0.041,2.801,0.107,4.19c-10.066-8.837-16.439-21.784-16.439-36.2h-15.677c0,25.126,14.591,46.899,35.741,57.316 c6.038,20.036,19.049,37.065,36.203,48.277l-0.213,22.611h-54.966c-22.482,0-40.773,18.29-40.773,40.772v55.094h15.677v-55.094 c0-13.837,11.257-25.094,25.095-25.094h55.258v8.166c0,23.403,16.892,42.921,39.121,47.038v24.988h15.677v-24.684 c23.103-3.376,40.904-23.315,40.904-47.34v-8.166h55.258c13.837,0,25.094,11.257,25.094,25.094v55.094h15.677v-55.094 C399.728,434.42,381.438,416.13,358.957,416.13z M343.711,151.72h16.333v80.353h-16.333V151.72z M167.984,232.073h-16.333V151.72 h16.333V232.073z M183.661,127.876c0-39.804,32.383-72.186,72.187-72.186c39.804,0,72.186,32.382,72.186,72.186v40.548 c-7.255-9.917-18.972-16.376-32.174-16.376c-19.207,0-35.281,13.659-39.025,31.773h-1.975 c-3.743-18.115-19.818-31.773-39.025-31.773c-13.202,0-24.919,6.458-32.174,16.376v-40.548H183.661z M320.031,191.896 c0,13.328-10.843,24.171-24.171,24.171s-24.171-10.843-24.171-24.171c0-13.328,10.843-24.171,24.171-24.171 S320.031,178.568,320.031,191.896z M240.007,191.896c0,13.328-10.844,24.171-24.171,24.171c-13.328,0-24.171-10.843-24.171-24.171 c0-13.328,10.843-24.171,24.171-24.171C229.163,167.725,240.007,178.568,240.007,191.896z M190.755,351.126 c2.966,0.424,5.993,0.656,9.075,0.656h17.499c3.25,9.307,12.111,16.004,22.514,16.004c13.148,0,23.843-10.696,23.843-23.843 c0-0.055-0.004-0.109-0.004-0.164h20.174c15.353,0,27.845-12.491,27.845-27.845c0-15.354-12.492-27.845-27.845-27.845h-56.017 c-15.353,0-27.845,12.492-27.845,27.845c0,7.932,3.339,15.093,8.678,20.169h-8.843c-5.172,0-10.153-0.829-14.826-2.344 c-0.872-4.477-1.343-9.096-1.343-13.824V215.369c7.255,9.917,18.973,16.376,32.174,16.376c19.373,0,35.553-13.898,39.113-32.247h1.8 c3.56,18.348,19.74,32.247,39.113,32.247c13.202,0,24.919-6.458,32.174-16.376v104.567c0,39.804-32.382,72.187-72.186,72.187 C227.209,392.123,202.412,375.357,190.755,351.126z M239.842,320.1c-6.573,0-12.532,2.674-16.85,6.99 c-4.303-1.877-7.321-6.167-7.321-11.154c0-6.709,5.458-12.168,12.168-12.168h56.017c6.709,0,12.168,5.459,12.168,12.168 s-5.459,12.168-12.168,12.168h-26.214C253.273,323.197,246.914,320.1,239.842,320.1z M248.008,343.943 c0,4.504-3.663,8.166-8.166,8.166s-8.166-3.663-8.166-8.166c0-4.503,3.663-8.166,8.166-8.166S248.008,339.441,248.008,343.943z M255.847,472.148c-17.74,0-32.174-14.434-32.174-32.174l-0.155-38.363c10.014,3.978,20.915,6.189,32.329,6.189 c11.301,0,22.099-2.168,32.031-6.071l0.143,38.245C288.021,457.715,273.588,472.148,255.847,472.148z"></path> <rect x="280.563" y="496.324" style="fill:#FCBB3B;" width="14.632" height="15.677"></rect> <rect x="159.325" y="487.962" width="15.677" height="24.039"></rect> <rect x="335.956" y="487.962" width="15.677" height="24.039"></rect> </g></svg>