<?xml version="1.0" ?><!DOCTYPE svg  PUBLIC '-//W3C//DTD SVG 1.1//EN'  'http://www.w3.org/Graphics/SVG/1.1/DTD/svg11.dtd'><svg version="1.1" id="Layer_1" xmlns="http://www.w3.org/2000/svg" xmlns:xlink="http://www.w3.org/1999/xlink" viewBox="0 0 512 512" xml:space="preserve" fill="#000000"><g id="SVGRepo_bgCarrier" stroke-width="0"></g><g id="SVGRepo_tracerCarrier" stroke-linecap="round" stroke-linejoin="round"></g><g id="SVGRepo_iconCarrier"> <rect x="71.16" y="6.345" style="fill:#FCBB3B;" width="369.677" height="24.113"></rect> <rect x="70.235" y="6.345" style="fill:#BD8C2C;" width="161.652" height="24.113"></rect> <rect x="79.198" y="30.448" style="fill:#75C0C7;" width="353.605" height="377.718"></rect> <rect x="79.198" y="30.448" style="fill:#589095;" width="144.658" height="377.718"></rect> <rect x="416.73" y="247.435" style="fill:#FCBB3B;" width="32.146" height="64.288"></rect> <rect x="63.126" y="247.435" style="fill:#BD8C2C;" width="32.146" height="64.288"></rect> <polyline style="fill:#E0DCCD;" points="344.459,456.507 344.459,504.671 392.622,504.671 392.622,456.507 "></polyline> <polyline style="fill:#A8A59A;" points="120.393,456.507 120.393,504.671 167.51,504.671 167.51,456.507 "></polyline> <rect x="207.784" y="456.392" style="fill:#FCBB3B;" width="96.442" height="32.146"></rect> <rect x="207.784" y="456.392" style="fill:#BD8C2C;" width="48.216" height="32.146"></rect> <polyline style="fill:#4BAF78;" points="119.379,432.949 119.379,167.073 392.621,167.073 392.621,432.949 "></polyline> <polyline style="fill:#75C0C7;" points="320.377,456.507 408.328,456.507 408.328,432.425 103.641,432.425 103.641,456.507 191.592,456.507 "></polyline> <polyline style="fill:#589095;" points="215.673,456.507 263.837,456.507 263.837,432.425 103.641,432.425 103.641,456.507 151.804,456.507 "></polyline> <polyline style="fill:#1E834E;" points="119.379,432.425 119.379,167.073 247.963,167.073 247.963,432.425 "></polyline> <rect x="143.486" y="191.178" style="fill:#FFFFFF;" width="225.018" height="128.586"></rect> <g> <circle style="fill:#FCBB3B;" cx="159.558" cy="384.063" r="16.073"></circle> <circle style="fill:#FCBB3B;" cx="352.442" cy="384.063" r="16.073"></circle> </g> <path d="M312.072,496.388H199.928v-47.852h112.144V496.388z M215.634,480.682h80.733v-16.441h-80.733V480.682z"></path> <path d="M159.562,407.985c-13.194,0-23.927-10.733-23.927-23.927c0-13.193,10.733-23.926,23.927-23.926 c13.193,0,23.926,10.733,23.926,23.926C183.488,397.252,172.754,407.985,159.562,407.985z M159.562,375.839 c-4.533,0-8.221,3.687-8.221,8.22c0,4.534,3.688,8.221,8.221,8.221s8.22-3.688,8.22-8.221 C167.782,379.526,164.094,375.839,159.562,375.839z"></path> <path d="M352.438,407.985c-13.193,0-23.926-10.733-23.926-23.927c0-13.193,10.733-23.926,23.926-23.926 c13.194,0,23.927,10.733,23.927,23.926C376.365,397.252,365.632,407.985,352.438,407.985z M352.438,375.839 c-4.533,0-8.22,3.687-8.22,8.22c0,4.534,3.687,8.221,8.22,8.221c4.534,0,8.221-3.688,8.221-8.221 C360.659,379.526,356.971,375.839,352.438,375.839z"></path> <rect x="191.597" y="392.638" width="128.785" height="15.706"></rect> <rect x="191.597" y="368.556" width="128.785" height="15.706"></rect> <rect x="191.597" y="344.474" width="128.785" height="15.706"></rect> <path style="fill:#FCBB3B;" d="M344.218,303.64h-15.706c0-9.423-7.293-16.256-16.256-16.256c-8.964,0-16.257,6.833-16.257,16.256 h-15.706c0-17.8,14.338-31.962,31.963-31.962C329.88,271.678,344.218,285.84,344.218,303.64z"></path> <polygon points="174.839,512 110.97,512 110.97,473.26 126.675,473.26 126.675,496.294 159.134,496.294 159.134,473.26 174.839,473.26 "></polygon> <polygon points="399.952,512 336.082,512 336.082,473.26 351.788,473.26 351.788,496.294 384.246,496.294 384.246,473.26 399.952,473.26 "></polygon> <path d="M376.365,183.331h-240.73v144.29h240.729v-144.29H376.365z M360.659,311.914H151.34V199.036h88.414v9.324h-24.082v15.706 h64.916V208.36H255.46v-9.324h105.199v112.878H360.659z"></path> <path d="M456.729,319.584v-79.998h-47.852v48.348h-8.404V159.219H111.526v128.715h-8.404v-48.349H55.271v79.998h47.852V303.64h8.404 v121.456H94.217v39.787h97.374v-15.706h-81.669v-8.376h291.076v8.376h-80.622v15.706h96.327v-39.787h-16.23V303.64h8.404v15.944 H456.729z M424.583,255.291h16.441v48.587h-16.441V255.291z M87.417,303.879H70.976v-48.587h16.441V303.879z M384.769,425.096 H127.231V174.925h257.537V425.096z"></path> <polygon points="103.641,416.72 70.136,416.72 70.136,344.474 85.841,344.474 85.841,401.014 103.641,401.014 "></polygon> <polygon points="440.786,416.72 408.328,416.72 408.328,401.014 425.08,401.014 425.08,344.474 440.786,344.474 "></polygon> <polygon points="440.786,231.395 425.08,231.395 425.08,39.787 85.841,39.787 85.841,231.395 70.136,231.395 70.136,24.082 440.786,24.082 "></polygon> <rect x="70.136" width="370.65" height="15.706"></rect> <g> <rect x="135.057" y="136.115" style="fill:#FFFFFF;" width="16.753" height="15.706"></rect> <rect x="167.515" y="136.115" style="fill:#FFFFFF;" width="15.706" height="15.706"></rect> <rect x="328.758" y="136.115" style="fill:#FFFFFF;" width="15.706" height="15.706"></rect> <rect x="360.169" y="136.115" style="fill:#FFFFFF;" width="16.753" height="15.706"></rect> </g> <rect x="167.515" y="287.935" style="fill:#4BAF78;" width="63.869" height="15.706"></rect> <rect x="239.76" y="287.935" width="16.753" height="15.706"></rect> </g></svg>